<?xml version="1.0" encoding="utf-8"?>
<svg xmlns="http://www.w3.org/2000/svg" xmlns:xlink="http://www.w3.org/1999/xlink" version="1.1" id="TaxCloudLogo" x="0px" y="0px" viewBox="0 0 1993.1 1256.2" xml:space="preserve">
<style type="text/css">
	.st0{fill:#FFFFFF;}
	.st1{fill:#FF7200;}
	.st2{fill:#0066FF;}
	.st3{fill:none;stroke:#0066FF;stroke-width:3;stroke-linecap:round;stroke-linejoin:round;stroke-miterlimit:10;}
</style>
<a xlink:href="https://taxcloud.com/">
	<g>
		<path class="st0" d="M0,725.4v439.4c0,58.1,36,91.4,92.7,91.4h1811.8c54.5-0.5,88.5-48.5,88.5-88V657.9    c-30.9-56.6-79.7-101-140.9-133.3c12-30.8,18.5-64.1,18.5-98.9c0-158.4-135.9-286.8-303.7-286.8c-123.7,0-230.1,69.8-277.4,170    c-95.8-41.4-207.5-65.2-326.8-65.2C676,243.7,433,380.9,349.5,570.6h-3.3C193.5,570.6,61.6,633.9,0,725.4z"/>
		<polygon class="st1" points="226.7,912.3 226.7,1174.3 170.9,1174.3 170.9,912.3 70.8,912.3 70.8,863.2 331.3,863.2 331.3,912.3       "/>
		<path class="st1" d="M446.4,1066.8c-9.1-1.7-16-2.6-20.6-2.6c-42.2,0-63.3,13.8-63.3,41.5c0,20.5,11.9,30.8,35.8,30.8    c32.1,0,48.2-16.1,48.2-48.2v-21.5L446.4,1066.8L446.4,1066.8z M451.6,1151.6c-4.9,8-13.3,14.5-25.4,19.5s-24.7,7.6-37.8,7.6    c-24.7,0-44.2-6.1-58.3-18.4s-21.2-29.7-21.2-52.2c0-26.4,10-47,29.9-61.9s48.2-22.3,84.9-22.3c6.3,0,13.7,1,22.3,3.1    c0-26.7-17.1-40-51.2-40c-20.1,0-37,3.3-50.6,10l-11.6-41.3c18.5-8.7,40.4-13,65.9-13c35,0,60.7,7.9,77,23.7s24.5,45.7,24.5,89.8    v48.7c0,30.3,6.2,49.4,18.5,57.2c-4.4,7.7-9.4,12.5-14.8,14.3s-11.7,2.7-18.7,2.7c-7.7,0-14.7-2.9-20.8-8.5    C457.9,1164.4,453.8,1158.3,451.6,1151.6z"/>
		<polygon class="st1" points="705,1174.3 649,1098.7 592.9,1174.3 529.2,1174.3 617.8,1056.7 536.3,946.7 597.8,946.7     649.3,1014.8 700.6,946.7 761.6,946.7 680.6,1056.1 770,1174.3   "/>
		<path class="st2" d="M0,178.2v542.1c61.6-91.5,193.5-143.7,346.3-143.7h3.3c83.5-189.7,326.5-327,613.2-327    c119.3,0,231,23.8,326.8,65.2c47.3-100.2,153.8-170,277.4-170c167.7,0,303.7,128.4,303.7,286.8c0,34.8-6.5,68.1-18.5,98.9    c61.2,32.3,110,76.7,140.9,133.3V180.2c0-109-90.5-180.2-182.5-180.2H182C92,0,0,65.2,0,178.2z"/>
		<path class="st2" d="M1015.3,879.7l-23,45.7c-12.5-12.2-32.5-18.3-60.1-18.3c-26.2,0-47.7,10.9-64.4,32.5    c-16.8,21.7-25.1,49.1-25.1,82.4c0,33.3,7.8,59.6,23.3,79.1s36.2,29.3,62.2,29.3c29.6,0,52.8-10.5,69.6-31.6l26,44.6    c-22.8,24.1-56.1,36.1-100.1,36.1c-43.9,0-78.1-14.3-102.4-42.9s-36.5-67.6-36.5-117c0-46,13.5-84.4,40.5-115.4    c27-30.9,61.5-46.4,103.6-46.4C964.8,858,993.6,865.2,1015.3,879.7z"/>
		<path class="st2" d="M1078.2,862l53.6-12.7V1105c0,28,8.5,44.7,25.5,50.1c-8.3,15.7-22.5,23.6-42.5,23.6    c-24.4,0-36.5-16.7-36.5-50.2L1078.2,862L1078.2,862z"/>
		<path class="st2" d="M1237.7,1060c0,50.1,18.2,75.2,54.6,75.2c16.7,0,29.9-6.5,39.7-19.5s14.7-31.6,14.7-55.6    c0-49.4-18.1-74.1-54.4-74.1c-16.7,0-30,6.5-39.8,19.5C1242.6,1018.4,1237.7,1036.6,1237.7,1060z M1181.9,1060    c0-34.7,10.1-63,30.3-84.9c20.2-21.8,46.9-32.8,80-32.8c34.9,0,61.9,10.5,81.2,31.5s28.9,49.7,28.9,86.1    c0,36.3-9.8,65.1-29.5,86.6c-19.6,21.4-46.5,32.1-80.7,32.1c-34.9,0-62-10.8-81.3-32.4C1191.6,1124.6,1181.9,1095.9,1181.9,1060z"/>
		<path class="st2" d="M1595.2,1174.3v-19.1c-7.6,6.4-18,11.9-31.3,16.5s-25.5,7-36.7,7c-53.4,0-80-28.1-80-84.2V946.7h53.6v143.7    c0,29.2,13.2,43.8,39.7,43.8c12.2,0,23.5-3.1,33.9-9.4c10.5-6.2,17.4-13.5,20.8-21.7V946.7h53.6v227.6H1595.2z"/>
		<path class="st2" d="M1851,1001.2c-11.4-9.1-23.4-13.6-35.8-13.6c-21.5,0-38,6.5-49.6,19.5s-17.4,31.6-17.4,55.8    c0,47.3,23,71,69.1,71c5.2,0,11.5-1.5,19-4.6c7.5-3,12.4-6.1,14.7-9.2L1851,1001.2L1851,1001.2z M1851,1174.3v-13.8    c-4.4,4.8-11.9,9-22.5,12.7c-10.6,3.6-21.5,5.5-32.8,5.5c-32,0-57.3-10.1-75.7-30.2c-18.4-20.1-27.6-48.2-27.6-84.2    s10.6-65.3,31.7-87.9c21.1-22.6,47.5-33.9,79.3-33.9c17.5,0,33.3,3.5,47.6,10.6v-91l53.6-12.7v325.1H1851V1174.3z"/>
		<path class="st2" d="M1930.2,1172.2h6.1c1.3,0,2.3-0.1,3-0.4s1.3-0.7,1.7-1.3s0.6-1.2,0.6-1.9c0-1-0.4-1.8-1.1-2.5s-1.9-1-3.5-1    h-6.8L1930.2,1172.2L1930.2,1172.2z M1927.4,1184.2v-21.5h9.5c1.9,0,3.4,0.2,4.4,0.6s1.8,1.1,2.4,2c0.6,1,0.9,2.1,0.9,3.2    c0,1.5-0.5,2.8-1.5,3.8s-2.5,1.7-4.6,2c0.8,0.4,1.3,0.7,1.7,1.1c0.8,0.8,1.6,1.7,2.4,2.9l3.7,5.8h-3.5l-2.8-4.5    c-0.8-1.3-1.5-2.3-2.1-3c-0.5-0.7-1-1.2-1.4-1.4c-0.4-0.3-0.9-0.5-1.3-0.6c-0.3-0.1-0.8-0.1-1.6-0.1h-3.3v9.5h-2.9L1927.4,1184.2    L1927.4,1184.2z"/>
		<circle class="st3" cx="1935" cy="1174.2" r="15"/>
	</g>
</a>
</svg>
